<svg xmlns="http://www.w3.org/2000/svg" width="66" height="67" viewBox="0 0 66 67">
  <g id="chance-demo" transform="translate(-1175 -507)">
    <text id="Шанс_путешествия" data-name="Шанс
путешествия" transform="translate(1208 559)" fill="#fff" font-size="10" font-family="SegoeUI, Segoe UI" letter-spacing="0.07em"><tspan x="-13.535" y="0">Шанс</tspan><tspan x="-32.514" y="12">путешествия</tspan></text>
    <path id="Icon_awesome-dice" data-name="Icon awesome-dice" d="M41.625,13.5H33.276a5.7,5.7,0,0,1-1.2,6.28L22.5,29.361v3.264A3.375,3.375,0,0,0,25.875,36h15.75A3.375,3.375,0,0,0,45,32.625V16.875A3.375,3.375,0,0,0,41.625,13.5ZM33.75,26.438a1.688,1.688,0,1,1,1.688-1.687A1.688,1.688,0,0,1,33.75,26.438ZM30.49,13.31,18.19,1.01a3.45,3.45,0,0,0-4.879,0L1.01,13.31a3.45,3.45,0,0,0,0,4.879l12.3,12.3a3.45,3.45,0,0,0,4.879,0l12.3-12.3a3.451,3.451,0,0,0,0-4.88ZM6.75,17.438A1.688,1.688,0,1,1,8.438,15.75,1.688,1.688,0,0,1,6.75,17.438Zm9,9a1.688,1.688,0,1,1,1.688-1.687A1.688,1.688,0,0,1,15.75,26.438Zm0-9a1.688,1.688,0,1,1,1.688-1.687A1.688,1.688,0,0,1,15.75,17.438Zm0-9A1.688,1.688,0,1,1,17.438,6.75,1.688,1.688,0,0,1,15.75,8.438Zm9,9a1.688,1.688,0,1,1,1.688-1.687A1.688,1.688,0,0,1,24.75,17.438Z" transform="translate(1186 507)" fill="#1988d2"/>
  </g>
</svg>
