<svg xmlns="http://www.w3.org/2000/svg" width="40.852" height="40" viewBox="0 0 40.852 40"><path d="M25.744,21.28a2.278,2.278,0,1,1-2.27-2.47A2.371,2.371,0,0,1,25.744,21.28Zm-10.392-2.47a2.479,2.479,0,0,0,0,4.94,2.371,2.371,0,0,0,2.27-2.47A2.357,2.357,0,0,0,15.351,18.809Zm24.516,2.47c0,10-7.571,20.189-20.071,20.189A20.561,20.561,0,0,1-.984,21.28c0-10,8.28-19.811,20.78-19.811A19.628,19.628,0,0,1,39.867,21.28Zm-7.358,4.54a29.8,29.8,0,0,0-3.2-12.974,11,11,0,0,0-6.253-2.337l-.312.356a14.81,14.81,0,0,1,5.541,2.826,18.909,18.909,0,0,0-16.624-.645c-.823.378-1.313.645-1.313.645A15.013,15.013,0,0,1,16.2,10.776l-.223-.267a11,11,0,0,0-6.253,2.337,29.8,29.8,0,0,0-3.2,12.974S8.386,29.046,13.3,29.2c0,0,.823-1,1.491-1.847A6.921,6.921,0,0,1,10.9,24.729c.327.229.867.526.912.556a16.222,16.222,0,0,0,13.886.779,12.734,12.734,0,0,0,2.559-1.313A7.022,7.022,0,0,1,24.23,27.4c.668.846,1.469,1.8,1.469,1.8C30.617,29.046,32.509,25.819,32.509,25.819Z" transform="translate(0.984 -1.469)" fill="#fff"/></svg>