<svg xmlns="http://www.w3.org/2000/svg" width="41.003" height="40" viewBox="0 0 41.003 40"><g transform="translate(-1525 -1072)"><g transform="translate(1525 1072)"><path d="M38.253,15.576a20.412,20.412,0,0,0-7.461-7.461A20.052,20.052,0,0,0,20.5,5.365a20.055,20.055,0,0,0-10.291,2.75A20.41,20.41,0,0,0,2.75,15.576,20.054,20.054,0,0,0,0,25.866,19.924,19.924,0,0,0,3.911,37.918a20.079,20.079,0,0,0,10.1,7.408,1.2,1.2,0,0,0,1.068-.187,1.044,1.044,0,0,0,.347-.8q0-.08-.013-1.441T15.4,40.522l-.614.106a7.83,7.83,0,0,1-1.482.094,11.286,11.286,0,0,1-1.855-.187,4.146,4.146,0,0,1-1.789-.8,3.387,3.387,0,0,1-1.174-1.641l-.267-.614a6.67,6.67,0,0,0-.841-1.361A3.221,3.221,0,0,0,6.22,35.1l-.187-.134a1.96,1.96,0,0,1-.347-.321,1.464,1.464,0,0,1-.24-.374q-.08-.187.133-.308a1.731,1.731,0,0,1,.774-.119l.534.08a3.9,3.9,0,0,1,1.321.641A4.309,4.309,0,0,1,9.5,35.956a4.706,4.706,0,0,0,1.482,1.669,3.143,3.143,0,0,0,1.748.574,7.591,7.591,0,0,0,1.522-.133,5.309,5.309,0,0,0,1.2-.4,4.325,4.325,0,0,1,1.308-2.75,18.278,18.278,0,0,1-2.736-.481,10.9,10.9,0,0,1-2.509-1.042A7.187,7.187,0,0,1,9.369,31.6a8.6,8.6,0,0,1-1.4-2.8,13.329,13.329,0,0,1-.547-4A7.786,7.786,0,0,1,9.53,19.3a7.176,7.176,0,0,1,.187-5.445,3.741,3.741,0,0,1,2.3.36,16.052,16.052,0,0,1,2.229,1.028q.708.426,1.135.721a19.279,19.279,0,0,1,10.251,0l1.014-.64A14.366,14.366,0,0,1,29.1,14.147a3.5,3.5,0,0,1,2.163-.293,7.107,7.107,0,0,1,.213,5.445,7.787,7.787,0,0,1,2.109,5.5,13.477,13.477,0,0,1-.547,4.017,8.26,8.26,0,0,1-1.414,2.8,7.463,7.463,0,0,1-2.163,1.775,10.914,10.914,0,0,1-2.509,1.041,18.26,18.26,0,0,1-2.736.481,4.755,4.755,0,0,1,1.388,3.79v5.632a1.063,1.063,0,0,0,.334.8,1.159,1.159,0,0,0,1.054.187,20.076,20.076,0,0,0,10.1-7.407A19.928,19.928,0,0,0,41,25.865,20.07,20.07,0,0,0,38.253,15.576Z" transform="translate(0 -5.365)" fill="#fff"/></g></g></svg>