<svg xmlns="http://www.w3.org/2000/svg" width="40" height="40" viewBox="0 0 40 40"><path d="M-5924-6802a19.87,19.87,0,0,1-14.143-5.858A19.869,19.869,0,0,1-5944-6822a19.871,19.871,0,0,1,5.858-14.143A19.871,19.871,0,0,1-5924-6842a19.869,19.869,0,0,1,14.141,5.858A19.87,19.87,0,0,1-5904-6822a19.867,19.867,0,0,1-5.858,14.141A19.867,19.867,0,0,1-5924-6802Zm3.018-13.374c.394,0,.757.451.938.721a5.226,5.226,0,0,1,.325.595,5.885,5.885,0,0,0,.28.524,2.825,2.825,0,0,0,.517.582,3.771,3.771,0,0,1,.426.44l0,.006a14.416,14.416,0,0,0,1.437,1.637,4.145,4.145,0,0,0,2.523.56,6.379,6.379,0,0,0,3.289-.678c1.576-1.251.128-3.1-.831-4.319-.181-.23-.368-.468-.5-.665a8.758,8.758,0,0,0-.961-1.074,5.592,5.592,0,0,1-1.539-2.065c-.141-.582.776-2.146,1.839-3.957,1.429-2.435,3.048-5.194,2.523-6.333a.907.907,0,0,0-.719-.5,3.116,3.116,0,0,0-.57-.046c-.266,0-.546.023-.794.044-.284.025-.54.045-.791.045-.063,0-.12,0-.171,0-.506-.023-1.024-.032-1.481-.04h-.718c-.057,0-.12,0-.187-.009h-.013c-.088-.006-.167-.011-.248-.011a.686.686,0,0,0-.494.153,2.874,2.874,0,0,0-.456.98,4.616,4.616,0,0,1-.214.564,11.224,11.224,0,0,0-.614,1.593,10,10,0,0,1-.694,1.741c-.241.435-.472.881-.7,1.313-.18.347-.365.7-.555,1.055a4.562,4.562,0,0,0-.2.449c-.172.418-.334.813-.809.853-.025,0-.05,0-.077,0a.487.487,0,0,1-.368-.135c-.219-.219-.217-.674-.215-1.155v-.058c0-.506,0-1.014-.009-1.5v-.157c-.01-.959-.021-1.952.01-2.938,0-.088.006-.18.01-.275.044-1.167.1-2.765-.858-3.176a3.352,3.352,0,0,0-1.348-.236c-.259,0-.524.016-.781.032h-.018l-.042,0h-.022c-.242.014-.492.028-.737.028a4.62,4.62,0,0,1-.478-.022,5,5,0,0,0-.508-.029,3.6,3.6,0,0,0-1.434.314c-.906.377-1.02.625-1.13.863-.021.044-.041.087-.064.13.042.565.363.645.7.729a1.051,1.051,0,0,1,.775.483,3.723,3.723,0,0,1,.214,1.754l0,.089a16.9,16.9,0,0,0,.065,2.031c.066.66.091,2.644-.412,3.2a.405.405,0,0,1-.307.149.459.459,0,0,1-.068-.005c-.373-.061-.967-.874-1.187-1.275a17.6,17.6,0,0,1-.793-1.722l-.062-.149a12.887,12.887,0,0,0-.782-1.639,5.847,5.847,0,0,1-.529-1.35l0-.006c-.053-.177-.107-.36-.169-.547-.049-.145-.095-.3-.144-.461l-.015-.049a6.709,6.709,0,0,0-.44-1.2c-.275-.515-1.269-.822-2.657-.822a5.121,5.121,0,0,0-2.831.624c-.526.634-.111,1.994.163,2.893.04.13.08.261.112.374,1.131,3.991,3.921,8.272,6.447,11.972a8.932,8.932,0,0,0,3.056,2.724c.17.1.339.2.5.308l.006,0a4.233,4.233,0,0,0,1.3.639,6.85,6.85,0,0,0,1.469.124c.145,0,.3,0,.479-.007l.893-.05a1.806,1.806,0,0,0,.184.009,1.264,1.264,0,0,0,.865-.319c.515-.43.514-1.221.514-2.058a3.577,3.577,0,0,1,.332-1.931A.666.666,0,0,1-5920.981-6815.374Z" transform="translate(5944 6842)" fill="#fff"/></svg>