<svg id="Icon_Perm_Identity_Outlined" data-name="Icon / Perm Identity / Outlined" xmlns="http://www.w3.org/2000/svg" width="19" height="19" viewBox="0 0 19 19">
  <rect id="Box" width="19" height="19" fill="none"/>
  <path id="Path_2103" data-name="Path 2103" d="M973.5-65.744a2.493,2.493,0,0,1,2.494,2.494,2.493,2.493,0,0,1-2.494,2.494,2.493,2.493,0,0,1-2.494-2.494A2.493,2.493,0,0,1,973.5-65.744Zm0,10.687c3.527,0,7.244,1.734,7.244,2.494v1.306H966.256v-1.306C966.256-53.323,969.973-55.056,973.5-55.056ZM973.5-68a4.749,4.749,0,0,0-4.75,4.75,4.749,4.749,0,0,0,4.75,4.75,4.749,4.749,0,0,0,4.75-4.75A4.749,4.749,0,0,0,973.5-68Zm0,10.688c-3.171,0-9.5,1.591-9.5,4.75V-49h19v-3.562c0-1.617-1.659-2.824-3.992-3.724A17.1,17.1,0,0,0,973.5-57.312Z" transform="translate(-964 68)" fill="#fff"/>
</svg>
