<svg xmlns="http://www.w3.org/2000/svg" width="216.59" height="94" viewBox="0 0 216.59 94">
  <g id="Group_120" data-name="Group 120" transform="translate(-852 -8)">
    <g id="Group_98" data-name="Group 98" transform="translate(-9080 -1711.387)">
      <path id="Union_8" data-name="Union 8" d="M88.789,61.8H86.462a1.437,1.437,0,0,1-1.711,1.163c-1.259-.138-.753-4-.753-4l1.607-1.506.271-7.332.848-2.01L78.1,47.133a5.665,5.665,0,0,1-.3,1.706c-.154.478.753,1.41.867,2.95A6.627,6.627,0,0,1,77.4,56.647c-.652,1.221-4.468,3.586-7.287,3.355s-5.986-1.735-6.94-5.379c-.815-3.112,2.04-7.616,2.891-8.864L0,38.217l.266-1.893L97,44.343a11.531,11.531,0,0,1-.257-5.379L69.672,34.337l.1-.7,27.708,2.934a11.779,11.779,0,0,1,9.409-6.97L107.9,0h.712l.877,29.567a11.779,11.779,0,0,1,9.765,7.189l29.5-3.123.1.7-28.882,4.936a11.534,11.534,0,0,1-.31,5.064l96.668-8.015.266,1.893-66.541,7.6c.893,1.32,3.657,5.741,2.853,8.81-.954,3.644-4.121,5.147-6.94,5.379q-.2.016-.4.016c-2.768,0-6.269-2.205-6.891-3.37a6.622,6.622,0,0,1-1.272-4.858c.114-1.54,1.022-2.471.867-2.95a5.731,5.731,0,0,1-.3-1.647l-7.886.9.857,2.036.271,7.332,1.607,1.506s.507,3.866-.753,4a1.437,1.437,0,0,1-1.711-1.163H128.03s-.464,1.316-1.348,1.316a1.094,1.094,0,0,1-.536-.152c-1.232-.684-.548-4.312-.548-4.312l1.335-1.2V55l-3.371-3.541-1.159.8a2.945,2.945,0,0,0-2.293.308,13.179,13.179,0,0,1-3.45,1.8,43.393,43.393,0,0,1-6.5.326h-.48l-.306,5.489.616.691s.194,1.775-.288,1.838c-.536.143-.655-.534-.655-.534h-1.878s-.25.848-.72.534-.21-1.979-.21-1.979l.51-.55-.588-5.49a41.251,41.251,0,0,1-6.231-.326,13.168,13.168,0,0,1-3.45-1.8,2.945,2.945,0,0,0-2.293-.308l-1.021-.7L89.883,55V57.46l1.335,1.2s.684,3.628-.548,4.312a1.1,1.1,0,0,1-.536.152C89.253,63.12,88.789,61.8,88.789,61.8Z" transform="translate(9932 1719.387)" fill="#fff"/>
    </g>
    <text id="WorldWidel" transform="translate(907 97)" fill="#fff" font-size="18" font-family="SegoeUI, Segoe UI" letter-spacing="0.07em"><tspan x="0" y="0">WorldWidel</tspan></text>
  </g>
</svg>
