<svg xmlns="http://www.w3.org/2000/svg" width="101.312" height="123.766" viewBox="0 0 101.312 123.766">
  <g id="_3" data-name="3" transform="translate(0.365 0.504)">
    <g id="Rectangle_9" data-name="Rectangle 9" transform="translate(4.654 60.262)" fill="#fff" stroke="#707070" stroke-width="1">
      <rect width="90" height="63" stroke="none"/>
      <rect x="0.5" y="0.5" width="89" height="62" fill="none"/>
    </g>
    <g id="Rectangle_10" data-name="Rectangle 10" transform="translate(-0.346 40.262)" fill="#fff" stroke="#707070" stroke-width="1">
      <rect width="101" height="23" stroke="none"/>
      <rect x="0.5" y="0.5" width="100" height="22" fill="none"/>
    </g>
    <g id="Rectangle_11" data-name="Rectangle 11" transform="translate(40.654 40.262)" fill="#fff" stroke="#707070" stroke-width="1">
      <rect width="22" height="83" stroke="none"/>
      <rect x="0.5" y="0.5" width="21" height="82" fill="none"/>
    </g>
    <path id="Path_1" data-name="Path 1" d="M1468.01,1719.312c-36.669-9.78-31.384-26.314-31.384-26.314s3.872-27.594,25.98-3.635,23.415,28.826,25.764,30.5,19.753-24.86,32.9-31.524,15.229,2.306,15.272,2.221,1.235,25.76-23.82,28.755A183.959,183.959,0,0,1,1468.01,1719.312Z" transform="translate(-1436.11 -1679.582)" fill="none" stroke="#707070" stroke-width="1"/>
  </g>
</svg>
