<svg xmlns="http://www.w3.org/2000/svg" width="415.219" height="405.115" viewBox="0 0 415.219 405.115">
  <g id="casket_open" transform="translate(-439.742 -4784.386)">
    <g id="Group_47" data-name="Group 47" transform="translate(439.742 4784.386)">
      <g id="Group_45" data-name="Group 45" transform="translate(0)">
        <g id="Path_11" data-name="Path 11" transform="matrix(0.438, 0.899, -0.899, 0.438, 316.894, 56.464)" fill="none">
          <path d="M76.316,26.624,187.693,0,113.949,315.729,0,309Z" stroke="none"/>
          <path d="M 178.2988891601563 9.442779541015625 L 81.98841857910156 32.46530151367188 L 9.002593994140625 302.5188598632813 L 108.4738464355469 308.3939208984375 L 178.2988891601563 9.442779541015625 M 187.6928253173828 -3.0517578125e-05 L 113.9489212036133 315.7294616699219 L 1.52587890625e-05 308.9993286132813 L 76.31596374511719 26.62405395507813 L 187.6928253173828 -3.0517578125e-05 Z" stroke="none" fill="#fff"/>
        </g>
        <g id="Path_13" data-name="Path 13" transform="matrix(0.438, 0.899, -0.899, 0.438, 39.131, 191.807)" fill="none">
          <path d="M0,0,114.617,5.619l42.308,20.646-113.7-7.319Z" stroke="none"/>
          <path d="M 21.50436401367188 5.059001922607422 L 44.18131256103516 14.99940395355225 L 136.9564514160156 20.971435546875 L 113.6005020141602 9.573793411254883 L 21.50436401367188 5.059001922607422 M 0 9.5367431640625e-06 L 114.6167144775391 5.618818283081055 L 156.9249114990234 26.26510429382324 L 43.22100067138672 18.94586563110352 L 0 9.5367431640625e-06 Z" stroke="none" fill="#fff"/>
        </g>
        <g id="Path_14" data-name="Path 14" transform="matrix(0.438, 0.899, -0.899, 0.438, 366.79, 158.925)" fill="none">
          <path d="M0,314.285,73.62,0l36.855,26.8-67.81,308.3Z" stroke="none"/>
          <path d="M 39.84990310668945 329.270263671875 L 106.005859375 28.49344062805176 L 76.14004516601563 6.778241157531738 L 4.622663021087646 312.0888061523438 L 39.84990310668945 329.270263671875 M 42.66470336914063 335.0935668945313 L 2.051613591902424e-05 314.2846069335938 L 73.61952209472656 1.071999304258497e-05 L 110.474609375 26.79705619812012 L 42.66470336914063 335.0935668945313 Z" stroke="none" fill="#fff"/>
        </g>
        <g id="Path_12" data-name="Path 12" transform="translate(18.61 20.614)" fill="none">
          <path d="M-2.021,21.407,295.892-20.614l8.781,132.964L19.929,165.66Z" stroke="none"/>
          <path d="M 289.4044799804688 -12.62982177734375 L 5.963409423828125 27.35015869140625 L 25.7601318359375 157.4471740722656 L 297.2789306640625 106.6128845214844 L 289.4044799804688 -12.62982177734375 M 295.8924560546875 -20.61427307128906 L 304.6730346679688 112.3501739501953 L 19.92935180664063 165.6604461669922 L -2.021484375 21.40713500976563 L 295.8924560546875 -20.61427307128906 Z" stroke="none" fill="#fff"/>
        </g>
        <g id="Path_15" data-name="Path 15" transform="translate(18.273 41.727) rotate(82)" fill="none">
          <path d="M145.881,0l-28.2,18.154-70.151.3L0,1.615Z" stroke="none"/>
          <path d="M 132.0395202636719 4.153443336486816 L 22.56636810302734 5.365123748779297 L 48.21039581298828 14.44941902160645 L 116.4977874755859 14.15874195098877 L 132.0395202636719 4.153443336486816 M 145.8809204101563 -7.62939453125e-06 L 117.6817855834961 18.15373039245605 L 47.53108978271484 18.45233917236328 L 0 1.614643096923828 L 145.8809204101563 -7.62939453125e-06 Z" stroke="none" fill="#fff"/>
        </g>
      </g>
      <g id="Group_44" data-name="Group 44" transform="translate(182.386 171.023)">
        <g id="Ellipse_21" data-name="Ellipse 21" transform="translate(12.873 -0.409)" fill="none" stroke="#fff" stroke-width="3">
          <ellipse cx="23" cy="10.5" rx="23" ry="10.5" stroke="none"/>
          <ellipse cx="23" cy="10.5" rx="21.5" ry="9" fill="none"/>
        </g>
        <path id="Path_16" data-name="Path 16" d="M-7789.111,4948.828l13.34-11.388a23.184,23.184,0,0,1,8.667-4.756c5.291-1.552,8.381-1.446,12.491-1.446,3.945,0,8.372.077,12.065,1.106a40.886,40.886,0,0,1,11.218,5.1l12.576,9.433s7.222,11.131-7.139,19.119a57.231,57.231,0,0,1-17.677,6.31,65,65,0,0,1-10.107,1,70.86,70.86,0,0,1-13.986-1.683c-7.272-1.622-15.083-4.616-18.135-7.58C-7791.747,4958.259-7789.111,4948.828-7789.111,4948.828Z" transform="translate(7789.693 -4931.145)" fill="none" stroke="#fff" stroke-width="3"/>
        <path id="Path_17" data-name="Path 17" d="M-7766.093,4952.519l-10.2,25.747,21.074-14.7,10.62,24.047,11.216-24.047,16.4,17.5-4.247-24.388,12.064,5.354" transform="translate(7780.355 -4945.969)" fill="none" stroke="#fff" stroke-linejoin="bevel" stroke-width="3"/>
        <path id="Path_18" data-name="Path 18" d="M-7772.93,5043.247l32.074,27.145-17.373-20.857,15.8,1.869,1.568,18.988,13.3-20.857,12.746-5.269-26.047,26.125" transform="translate(7778.016 -5009.167)" fill="none" stroke="#fff" stroke-linejoin="round" stroke-width="3"/>
      </g>
      <g id="Group_46" data-name="Group 46" transform="translate(148.33 179.057)">
        <path id="Path_19" data-name="Path 19" d="M-7943.548,4877.811c20.275-10.739,45.9,0,45.9,0" transform="translate(7943.548 -4828.251)" fill="none" stroke="#fff" stroke-width="3"/>
        <path id="Path_20" data-name="Path 20" d="M45.9,4.773C25.62-5.967,0,4.773,0,4.773" transform="translate(96.029 40.9) rotate(-31)" fill="none" stroke="#fff" stroke-width="3"/>
        <line id="Line_19" data-name="Line 19" x2="13.753" y2="9.169" transform="translate(23.034 18.338)" fill="none" stroke="#fff" stroke-width="3"/>
        <line id="Line_21" data-name="Line 21" x2="2.292" y2="4.584" transform="translate(73.464 61.89)" fill="none" stroke="#fff" stroke-width="3"/>
        <line id="Line_20" data-name="Line 20" x1="4.584" y2="9.169" transform="translate(107.847)" fill="none" stroke="#fff" stroke-width="3"/>
      </g>
    </g>
    <g id="Path_21" data-name="Path 21" transform="translate(666.583 5027.115)" fill="#fff">
      <path d="M 1.600589394569397 32.72625350952148 L 1.600589394569397 0.7741665840148926 L 24.19900894165039 -3.42204737663269 L 24.19900894165039 27.99199104309082 L 1.600589394569397 32.72625350952148 Z" stroke="none"/>
      <path d="M 23.69900894165039 -2.820663452148438 L 2.100589752197266 1.189855575561523 L 2.100589752197266 32.11066055297852 L 23.69900894165039 27.58588981628418 L 23.69900894165039 -2.820663452148438 M 24.69900894165039 -4.023441314697266 L 24.69900894165039 28.39809989929199 L 1.100589752197266 33.34186172485352 L 1.100589752197266 0.3584499359130859 L 24.69900894165039 -4.023441314697266 Z" stroke="none" fill="#fff"/>
    </g>
  </g>
</svg>
