<svg xmlns="http://www.w3.org/2000/svg" width="24" height="24" viewBox="0 0 24 24">
  <g id="Group_38" data-name="Group 38" transform="translate(-201 -230)">
    <path id="Subtraction_6" data-name="Subtraction 6" d="M2200-1451h-8a2,2,0,0,1-2-2v-12h12v12A2,2,0,0,1,2200-1451Zm-1.255-11.6a.5.5,0,0,0-.5.5v8a.5.5,0,0,0,.5.5.5.5,0,0,0,.5-.5v-8A.5.5,0,0,0,2198.745-1462.6Zm-2.723,0a1,1,0,0,0-1,1v7a1,1,0,0,0,1,1,1,1,0,0,0,1-1v-7A1,1,0,0,0,2196.022-1462.6Zm-2.721,0a.5.5,0,0,0-.5.5v8a.5.5,0,0,0,.5.5.5.5,0,0,0,.5-.5v-8A.5.5,0,0,0,2193.3-1462.6Zm9.7-3.4h-14v-2h3.5l1-1h5l1,1h3.5v2Z" transform="translate(-1983 1702)" fill="#7e7e7e"/>
    <rect id="Box" width="24" height="24" transform="translate(201 230)" fill="none"/>
  </g>
</svg>
