<svg id="Group_12" data-name="Group 12" xmlns="http://www.w3.org/2000/svg" width="26.952" height="32.4" viewBox="0 0 26.952 32.4">
  <path id="Subtraction_4" data-name="Subtraction 4" d="M16,26H5a5.006,5.006,0,0,1-5-5V0H21V21A5.006,5.006,0,0,1,16,26Zm.407-22.911a.657.657,0,0,0-.656.656V22.512a.656.656,0,1,0,1.312,0V3.745A.657.657,0,0,0,16.406,3.089Zm-3.937,0a.657.657,0,0,0-.656.656V22.512a.656.656,0,1,0,1.312,0V3.745A.657.657,0,0,0,12.469,3.089Zm-3.937,0a.657.657,0,0,0-.656.656V22.512a.656.656,0,1,0,1.312,0V3.745A.657.657,0,0,0,8.531,3.089Zm-3.938,0a.657.657,0,0,0-.656.656V22.512a.656.656,0,1,0,1.312,0V3.745A.657.657,0,0,0,4.594,3.089Z" transform="translate(3.401 6.4)" fill="#7E7E7E"/>
  <path id="Union_10" data-name="Union 10" d="M0,5.7V5.287A1.659,1.659,0,0,1,1.659,3.628H7.775A3.632,3.632,0,0,1,11.4,0H15.55a3.633,3.633,0,0,1,3.628,3.627h5.7A2.073,2.073,0,0,1,26.952,5.7ZM17.862,3.628A3.1,3.1,0,0,0,14.773.864H12.181A3.1,3.1,0,0,0,9.09,3.628Z" transform="translate(0 0)" fill="#7E7E7E"/>
</svg>
